<svg width="795" height="797" viewBox="0 0 795 797" fill="none" xmlns="http://www.w3.org/2000/svg">
<g filter="url(#filter0_d_142_10)">
<circle cx="258.098" cy="173.212" r="10.7406" transform="rotate(42.8004 258.098 173.212)" fill="white" stroke="white" stroke-width="3" stroke-linecap="round"/>
<circle cx="258.075" cy="279.434" r="10.7406" transform="rotate(42.8004 258.075 279.434)" fill="white" stroke="white" stroke-width="3" stroke-linecap="round"/>
<circle cx="304.19" cy="329.742" r="34.3709" transform="rotate(42.8004 304.19 329.742)" fill="white" stroke="white" stroke-width="3" stroke-linecap="round"/>
<circle cx="447.649" cy="348.741" r="10.7406" transform="rotate(42.8004 447.649 348.741)" fill="white" stroke="white" stroke-width="3" stroke-linecap="round"/>
<circle cx="601.327" cy="393.94" r="12.0291" transform="rotate(42.8004 601.327 393.94)" fill="white" stroke="white" stroke-width="3" stroke-linecap="round"/>
<circle cx="610.921" cy="269.124" r="8.48577" transform="rotate(42.8004 610.921 269.124)" fill="white" stroke="white" stroke-width="3" stroke-linecap="round"/>
<circle cx="573.157" cy="234.953" r="6.23092" transform="rotate(42.8004 573.157 234.953)" fill="white" stroke="white" stroke-width="3" stroke-linecap="round"/>
<circle cx="400.783" cy="279.88" r="8.16365" transform="rotate(42.8004 400.783 279.88)" fill="white" stroke="white" stroke-width="3" stroke-linecap="round"/>
<circle cx="360.22" cy="505.736" r="9.45213" transform="rotate(42.8004 360.22 505.736)" fill="white" stroke="white" stroke-width="3" stroke-linecap="round"/>
<circle cx="395.205" cy="490.712" r="11.3849" transform="rotate(42.8004 395.205 490.712)" fill="white" stroke="white" stroke-width="3" stroke-linecap="round"/>
<circle cx="511.518" cy="619.292" r="35.2533" transform="rotate(42.8004 511.518 619.292)" fill="white" stroke="white" stroke-width="3" stroke-linecap="round"/>
<circle cx="421.994" cy="464.154" r="9.77425" transform="rotate(42.8004 421.994 464.154)" fill="white" stroke="white" stroke-width="3" stroke-linecap="round"/>
<circle cx="539.59" cy="460.135" r="7.84153" transform="rotate(42.8004 539.59 460.135)" fill="white" stroke="white" stroke-width="3" stroke-linecap="round"/>
<circle cx="338.729" cy="670.224" r="9.45213" transform="rotate(42.8004 338.729 670.224)" fill="white" stroke="white" stroke-width="3" stroke-linecap="round"/>
<circle cx="604.886" cy="329.735" r="33.277" transform="rotate(42.8004 604.886 329.735)" fill="white" stroke="white" stroke-width="3" stroke-linecap="round"/>
<circle cx="582.66" cy="453.922" r="10.7406" transform="rotate(42.8004 582.66 453.922)" fill="white" stroke="white" stroke-width="3" stroke-linecap="round"/>
<circle cx="223.605" cy="200.978" r="7.5194" transform="rotate(42.8004 223.605 200.978)" fill="white" stroke="white" stroke-width="3" stroke-linecap="round"/>
<line x1="226.824" y1="209.86" x2="253.86" y2="267.6" stroke="white" stroke-width="3" stroke-linecap="round"/>
<line x1="257.343" y1="185.683" x2="260.515" y2="268.266" stroke="white" stroke-width="3" stroke-linecap="round"/>
<line x1="269.177" y1="287.734" x2="297.361" y2="315.465" stroke="white" stroke-width="3" stroke-linecap="round"/>
<line x1="318.236" y1="317.554" x2="392.994" y2="282.57" stroke="white" stroke-width="3" stroke-linecap="round"/>
<line x1="408.206" y1="288.74" x2="441.33" y2="337.799" stroke="white" stroke-width="3" stroke-linecap="round"/>
<line x1="320.912" y1="326.878" x2="436.228" y2="343.783" stroke="white" stroke-width="3" stroke-linecap="round"/>
<line x1="311.012" y1="340.02" x2="358.216" y2="496.685" stroke="white" stroke-width="3" stroke-linecap="round"/>
<line x1="369.556" y1="500.256" x2="382.491" y2="494.878" stroke="white" stroke-width="3" stroke-linecap="round"/>
<line x1="402.127" y1="481.029" x2="411.908" y2="470.467" stroke="white" stroke-width="3" stroke-linecap="round"/>
<line x1="423.183" y1="451.79" x2="443.514" y2="360.001" stroke="white" stroke-width="3" stroke-linecap="round"/>
<line x1="360.544" y1="517.944" x2="341.449" y2="660.235" stroke="white" stroke-width="3" stroke-linecap="round"/>
<line x1="346.946" y1="665.363" x2="498.307" y2="622.867" stroke="white" stroke-width="3" stroke-linecap="round"/>
<line x1="505.304" y1="608.955" x2="426.305" y2="473.77" stroke="white" stroke-width="3" stroke-linecap="round"/>
<line x1="460.83" y1="345.765" x2="610.108" y2="334.221" stroke="white" stroke-width="3" stroke-linecap="round"/>
<line x1="612.794" y1="297.64" x2="612.035" y2="277.877" stroke="white" stroke-width="3" stroke-linecap="round"/>
<line x1="604.022" y1="263.463" x2="575.025" y2="236.611" stroke="white" stroke-width="3" stroke-linecap="round"/>
<line x1="607.395" y1="363.121" x2="602.59" y2="380.504" stroke="white" stroke-width="3" stroke-linecap="round"/>
<line x1="599.043" y1="405.05" x2="587.381" y2="444.142" stroke="white" stroke-width="3" stroke-linecap="round"/>
<line x1="572.771" y1="455.533" x2="548.554" y2="459.713" stroke="white" stroke-width="3" stroke-linecap="round"/>
</g>
<path d="M314.266 303.319L312.706 308.765C324.136 313.613 329.448 326.772 324.601 338.19C320.55 347.647 310.601 353.228 300.447 351.575L298.903 356.966C314.169 359.734 328.73 349.669 331.492 334.417C333.945 321.264 326.667 308.241 314.266 303.319ZM308.845 301.854C303.437 300.86 297.839 301.444 292.764 303.667L295.48 308.761C299.198 307.201 303.288 306.68 307.301 307.246L308.845 301.854ZM287.871 306.378C283.327 309.504 279.819 313.912 277.793 319.039L283.189 320.585C284.798 316.903 287.352 313.697 290.626 311.338L287.871 306.378ZM316.017 322.693L299.081 332.078L294.997 324.724L291.318 326.763L297.444 337.793L318.059 326.37L316.017 322.693ZM276.275 324.439C275.302 329.877 275.952 335.459 278.124 340.515L283.06 337.757C281.55 334.028 281.07 329.961 281.672 325.984L276.275 324.439ZM285.73 342.81L280.814 345.398C283.927 349.972 288.324 353.525 293.452 355.61L294.996 350.218C291.299 348.623 288.099 346.064 285.73 342.81Z" fill="url(#paint0_linear_142_10)"/>
<path fill-rule="evenodd" clip-rule="evenodd" d="M502.732 604.252C506.329 605.281 508.915 603.884 509.919 600.377C510.922 596.87 509.465 594.312 505.872 593.284C502.278 592.255 499.685 593.65 498.681 597.161C497.676 600.671 499.135 603.222 502.732 604.252ZM527.947 614.404C527.863 614.749 527.85 615.108 527.908 615.461C527.966 615.813 528.094 616.151 528.285 616.456C528.476 616.762 528.726 617.028 529.021 617.24C529.315 617.452 529.649 617.605 530.003 617.692C530.356 617.778 530.723 617.796 531.082 617.744C531.44 617.691 531.784 617.57 532.093 617.387C532.403 617.204 532.671 616.963 532.884 616.677C533.097 616.391 533.249 616.066 533.333 615.721C533.607 614.585 533.87 613.447 534.122 612.306C534.632 610.02 534.266 607.619 533.091 605.56C531.916 603.5 530.015 601.926 527.75 601.135C526.006 600.526 524.267 599.947 522.534 599.399C521.834 599.177 521.075 599.236 520.426 599.562C519.777 599.888 519.29 600.456 519.072 601.139C518.855 601.823 518.924 602.567 519.266 603.207C519.608 603.847 520.193 604.331 520.894 604.553C522.573 605.084 524.258 605.645 525.948 606.236C526.934 606.577 527.762 607.261 528.274 608.157C528.786 609.052 528.946 610.096 528.723 611.091C528.476 612.205 528.218 613.309 527.951 614.405L527.947 614.404ZM499.869 637.276C500.564 637.483 501.31 637.416 501.948 637.089C502.586 636.762 503.064 636.201 503.28 635.527C503.496 634.853 503.433 634.12 503.104 633.485C502.774 632.849 502.205 632.362 501.519 632.129C499.934 631.625 498.343 631.094 496.747 630.534C495.76 630.192 494.931 629.508 494.42 628.612C493.908 627.716 493.749 626.67 493.973 625.676L494.312 624.183C494.465 623.488 494.331 622.757 493.938 622.151C493.546 621.545 492.927 621.111 492.216 620.946C491.506 620.78 490.76 620.894 490.143 621.265C489.525 621.636 489.084 622.232 488.917 622.924L488.569 624.463C488.059 626.749 488.427 629.15 489.603 631.209C490.779 633.268 492.68 634.842 494.946 635.631C496.593 636.21 498.234 636.759 499.869 637.276ZM520.009 633.012C524.636 634.336 526.908 638.398 526.307 642.98C526.178 643.967 525.142 644.514 524.162 644.233L510.545 640.336C509.565 640.055 508.975 639.043 509.388 638.138C511.303 633.928 515.379 631.686 520.009 633.012ZM508.362 616.556C508.965 611.978 506.692 607.919 502.062 606.594C497.432 605.269 493.355 607.514 491.44 611.72C491.027 612.625 491.617 613.638 492.597 613.918L506.218 617.817C507.198 618.097 508.231 617.549 508.36 616.563L508.362 616.556ZM527.864 626.802C526.859 630.312 524.27 631.708 520.673 630.679C517.076 629.649 515.621 627.096 516.626 623.585C517.631 620.075 520.22 618.679 523.813 619.707C527.407 620.736 528.869 623.291 527.864 626.802Z" fill="url(#paint1_linear_142_10)"/>
<path d="M602.34 324.967C601.256 325.566 600.453 326.57 600.107 327.759C599.766 328.952 599.913 330.231 600.515 331.315C601.116 332.4 602.124 333.201 603.317 333.542C604.509 333.878 605.786 333.728 606.867 333.124" stroke="url(#paint2_linear_142_10)" stroke-width="3" stroke-linecap="round" stroke-linejoin="round"/>
<path d="M608.464 315.558C605.796 314.795 602.962 314.839 600.319 315.687C597.677 316.534 595.345 318.146 593.619 320.318C591.893 322.491 590.85 325.127 590.621 327.892C590.393 330.657 590.99 333.428 592.336 335.855C593.683 338.281 595.718 340.253 598.186 341.523C600.654 342.792 603.442 343.301 606.199 342.985C608.956 342.67 611.557 341.544 613.674 339.75C615.791 337.956 617.328 335.574 618.092 332.907" stroke="url(#paint3_linear_142_10)" stroke-width="3" stroke-linecap="round" stroke-linejoin="round"/>
<path d="M611.037 306.566C606.591 305.293 601.867 305.368 597.463 306.78C593.059 308.192 589.173 310.879 586.296 314.499C583.419 318.12 581.68 322.513 581.3 327.122C580.919 331.731 581.914 336.349 584.158 340.393C586.402 344.437 589.795 347.724 593.908 349.84C598.02 351.955 602.668 352.804 607.263 352.278C611.857 351.752 616.193 349.875 619.721 346.885C623.249 343.895 625.812 339.926 627.084 335.48M615.331 323.094L607.495 327.442" stroke="url(#paint4_linear_142_10)" stroke-width="3" stroke-linecap="round" stroke-linejoin="round"/>
<path d="M629.928 320.533L621.952 319.418L625.225 312.059C625.259 311.973 625.266 311.878 625.245 311.787C625.224 311.697 625.177 311.614 625.109 311.551C625.041 311.487 624.956 311.445 624.864 311.43C624.772 311.415 624.678 311.428 624.594 311.466L618.064 315.069C617.391 315.445 616.822 315.982 616.407 316.632C615.992 317.281 615.744 318.023 615.685 318.792L615.329 323.093L619.169 325.065C619.852 325.422 620.613 325.604 621.383 325.595C622.154 325.586 622.911 325.387 623.586 325.016L630.095 321.382C630.173 321.331 630.233 321.257 630.269 321.171C630.305 321.085 630.314 320.99 630.296 320.899C630.278 320.807 630.232 320.724 630.166 320.658C630.099 320.593 630.015 320.549 629.923 320.531" stroke="url(#paint5_linear_142_10)" stroke-width="3" stroke-linecap="round" stroke-linejoin="round"/>
<defs>
<filter id="filter0_d_142_10" x="144.586" y="90.9716" width="565.077" height="660.204" filterUnits="userSpaceOnUse" color-interpolation-filters="sRGB">
<feFlood flood-opacity="0" result="BackgroundImageFix"/>
<feColorMatrix in="SourceAlpha" type="matrix" values="0 0 0 0 0 0 0 0 0 0 0 0 0 0 0 0 0 0 127 0" result="hardAlpha"/>
<feOffset/>
<feGaussianBlur stdDeviation="35"/>
<feComposite in2="hardAlpha" operator="out"/>
<feColorMatrix type="matrix" values="0 0 0 0 1 0 0 0 0 0.958313 0 0 0 0 0.895783 0 0 0 0.78 0"/>
<feBlend mode="normal" in2="BackgroundImageFix" result="effect1_dropShadow_142_10"/>
<feBlend mode="normal" in="SourceGraphic" in2="effect1_dropShadow_142_10" result="shape"/>
</filter>
<linearGradient id="paint0_linear_142_10" x1="311.635" y1="302.566" x2="296.219" y2="356.402" gradientUnits="userSpaceOnUse">
<stop stop-color="#5B92FF"/>
<stop offset="1" stop-color="#9776FC"/>
</linearGradient>
<linearGradient id="paint1_linear_142_10" x1="517.658" y1="596.657" x2="505.565" y2="638.91" gradientUnits="userSpaceOnUse">
<stop stop-color="#5B92FF"/>
<stop offset="1" stop-color="#9776FC"/>
</linearGradient>
<linearGradient id="paint2_linear_142_10" x1="604.848" y1="325.685" x2="602.654" y2="333.352" gradientUnits="userSpaceOnUse">
<stop stop-color="#5B92FF"/>
<stop offset="1" stop-color="#9776FC"/>
</linearGradient>
<linearGradient id="paint3_linear_142_10" x1="608.464" y1="315.558" x2="600.743" y2="342.535" gradientUnits="userSpaceOnUse">
<stop stop-color="#5B92FF"/>
<stop offset="1" stop-color="#9776FC"/>
</linearGradient>
<linearGradient id="paint4_linear_142_10" x1="611.037" y1="306.566" x2="598.17" y2="351.527" gradientUnits="userSpaceOnUse">
<stop stop-color="#5B92FF"/>
<stop offset="1" stop-color="#9776FC"/>
</linearGradient>
<linearGradient id="paint5_linear_142_10" x1="625.339" y1="311.562" x2="621.274" y2="325.766" gradientUnits="userSpaceOnUse">
<stop stop-color="#5B92FF"/>
<stop offset="1" stop-color="#9776FC"/>
</linearGradient>
</defs>
</svg>
