<svg width="1437" height="951" viewBox="0 0 1437 951" fill="none" xmlns="http://www.w3.org/2000/svg">
<path d="M-3 80.277L64.125 135.706L93.2125 131.247L130.504 141.44L199.121 107.036L293.096 47.1468L359.475 61.1634L390.8 52.8809L544.442 90.4709L638.417 43.3241L768.192 54.7922L805.483 90.4709L852.471 101.939L912.138 76.4543L951.667 79.6399L994.179 70.0831L1031.47 32.4931L1050.12 19.7507L1064.29 16.5651C1071.44 7.77602 1079.2 6.37119 1090.39 0L1103.07 13.3795L1153.79 52.8809L1193.32 70.7202L1206.74 86.6482L1235.83 87.2853L1249.67 86.927L1253.5 85H1287.88L1358.15 59.8892L1437 93C1421.84 93.9307 1409.7 94.5659 1406.5 96.7246C1392.89 96.3595 1380.89 92.6599 1358.15 85H1287.88L1285.05 86.0111L1249.67 86.927L1182 121L1108.5 172C1086.87 192.051 1057.68 193.982 1006.98 197.336L1004.5 197.5L956.5 273.5L839.5 320L663.5 362L621 337L568.5 348.5L496 295L420 288L362.5 260.5L289 209L220 180.5C155.875 173.051 120.079 167.215 56.5 154L-3 139.5V80.277Z" fill="#BE9EE3"/>
<path d="M57.6551 154.274C31.0359 147.359 18.2545 144.278 -1.50244 139.821L-1.50234 317C92.5 326 256.5 336.5 256.5 336.5L363.178 375.5L565.5 408L918 357.5L921.655 358.558C1140.97 422.041 1239.1 450.445 1437 440.5V92.9739C1420.64 93.7221 1413 94.3719 1405.55 96.4625C1396.27 97.7283 1381.06 92.0749 1356.88 85H1253.54C1225.99 99.0045 1210.2 106.935 1181.65 121.381L1128.48 158.261C1089.54 182.681 1102.27 191.153 1004.93 197.632L957 273.384L839.434 320.231L663.459 362.094L620.775 337.176L568.5 346.405L495.721 295.313L419.34 287.837L363.178 260.925L289.044 208.596L220.151 180.687C190.198 176.7 170.138 173.854 137.78 169.225L57.6551 154.274Z" fill="#8F6DB4"/>
<path opacity="0.9" d="M98.25 325.396C59.4564 320.537 37.457 318.075 -3 315V951H1437V440.095L1296.75 440.441C1218.05 427.714 1167 418.957 1104.75 404.056C1029.91 384.651 989.265 374.648 918 357.622C781.546 373.713 704.153 384.693 564.75 407.522L363.75 374.255L255.75 336.831L98.25 325.396Z" fill="#5E487A"/>
</svg>
